<svg xmlns="http://www.w3.org/2000/svg" width="911.511" height="1000" viewBox="0 0 729.209 800"><path d="M441.847 0c21.173.304 42.347 1.281 63.508 2.296 20.717 1.447 41.485-.05 62.215-.444-.19 6.927.114 13.867-.482 20.78-.444 7.13-1.383 14.425.545 21.428 5.265-1.471 10.454-3.197 15.833-4.16 8.602-2.957 16.835-6.877 25.348-10.074 9.591-1.281 17.939-7.878 27.872-7.244 3.16 5.963 10.327 8.386 12.7 14.907 3.78 4.516 8.93 8.106 11.341 13.727 8.158 7.244 13.321 17.253 21.491 24.485 2.233 5.023 6.242 8.905 10.238 12.547 2.449 3.83 4.44 8.119 8.221 10.91 3.248 2.36 4.643 6.191 6.825 9.375 4.098 3.565 7.689 7.74 10.277 12.547 3.235 3.705 5.658 8.005 8.373 12.09 3.298 4.314 2.512 10.074 3.057 15.16-1.116 9.275-.127 18.637-1.218 27.911-3.374 37.248-7.142 74.458-10.745 111.68-.292 9.147.152 18.294-.203 27.428-3.692 4.149-8.716 7.028-11.558 11.913-.672 1.433-2.144 2.017-3.45 2.702-5.798 2.766-9.731 8.322-15.833 10.58-10.327 3.883-19.461 10.911-30.537 12.674-12.179 4.136-24.51 8.424-37.4 9.617-2.74-.102-6.736.85-8.094-2.296-2.486-5.037-6.876-8.944-8.208-14.527-3.666-5.632-8.12-10.808-10.86-17.038-3.45-7.611-10.11-13.244-12.94-21.173a274.625 274.625 0 0 1-7.954-12.18c2.765-.215 5.9.686 8.297-1.192 2.03-.089 4.085-.114 6.14-.14 2.905 1.942 5.506 4.428 7.054 7.612 1.827 3.908 6 5.735 8.563 9.046 2.347 2.448 3.35 6.013 6.356 7.84 3.844 2.804 6.496 6.787 9.502 10.39 5.62 1.954 8.462-4.833 10.644-8.728 4.162-4.466 8.665-9.16 10.315-15.211.799-61.695-.318-123.516-6.851-184.919-1.117-13.993-4.39-27.77-4.618-41.815-.749-4.897-2.068-9.705-2.436-14.653-2.398-2.118-5.34-4.656-8.792-3.691-6.774 1.395-13.384 3.742-20.374 3.476-8.88 2.03-17.888 3.844-26.35 7.282-1.37 7.586-.673 15.325-.825 23-.215 26.642.533 53.258.305 79.913-.14 38.91.57 77.806.304 116.729 2.652 56.302 6.902 112.516 10.822 168.743.685 6.8.71 13.626.583 20.45.203 2.335-2.055 3.756-3.171 5.507-3.578-5.341-6.914-10.91-8.944-17.05-2.728-7.638-8.208-13.88-10.784-21.58-2.804-7.638-7.6-14.273-11-21.619-.9 72.238.293 144.513-.697 216.763-5.214-2.22-7.472-7.498-10.34-11.951-1.928-9.528-9.628-16.53-12.47-25.728-1.814-5.595-5.988-9.972-8.31-15.338-.66 14.767-2.6 29.483-2.778 44.276.456 13.574-1.37 27.06-2.233 40.584-2.55 32.21-5.138 64.422-8.411 96.57-1.624 9.908.66 20.336-3.426 29.813-3.285-14.12-5.112-28.545-7.954-42.766-1.269-5.329-.406-10.847-1.51-16.176-3.463-18.7-6.686-37.45-10.2-56.15-.812-4.491-.228-9.11-1.141-13.588-3.54-19.296-7.118-38.58-10.594-57.875.19-9.731-2.436-19.144-4.021-28.66-2.41-13.066-4.847-26.12-7.27-39.175-.507-4.618-.177-9.3-1.218-13.854-3.108-16.581-6.229-33.175-9.299-49.77-1.789-7.116-.863-14.576-2.664-21.706 2.119 3.78 5.011 7.155 8.652 9.566 3.819 2.156 4.681 6.99 8.297 9.413a28.304 28.304 0 0 1 8.792 9.147c1.801.114 2.525-.748 2.182-2.6-1.04-12.713-4.06-25.272-3.768-38.086-3.133-23.533-6.927-46.965-10.822-70.372-.862-4.415-.076-8.97-1.027-13.371-3.68-20.882-7.358-41.84-11.52-62.583-12.788-2.613-26.324 1.23-38.592 5.43-3.996 1.002-7.472 3.489-11.57 4.072-2.182.343-4.3 1.205-6.052 2.55-1.623 3.552-.583 7.637-.85 11.405-.228 41.422.559 82.83.33 124.24.584 42.715.19 85.456.305 128.172-.647 18.217 1.522 37.019 9.692 53.524 2.538 6.508 6.445 13.03 12.598 16.683 3.489 3.12 7.954 4.757 11.697 7.498.431 1.915.431 3.932.089 5.873-1.903 1.903-4.758 2.436-7.32 1.853-11.837-2.043-23.686-4.694-35.764-4.352-38.224-4.49-77.07-6.52-115.37-1.598-2.462-.254-2.17-2.956-2.703-4.682-.432-2.435-2.334-4.199-3.629-6.178 5.037-4.022 10.441-7.536 15.935-10.898 3.704-3.996 7.536-7.865 11.24-11.862 1.56-4.503 4.022-8.614 5.975-12.94 3.768-11.024 6.724-22.57 6.28-34.304 5.011-51 4.555-102.355 2.93-153.52-.443-17.888-1.864-35.725-3.031-53.55-4.91 3.603-9.63 7.523-14.577 11.037-5.48 1.003-9.439 5.126-14.463 7.168-4.859 2.094-9.248 5.329-14.716 5.57-9.718 4.212-19.766 7.65-29.928 10.568-4.922.152-9.705 1.23-14.45 2.486.647 59.69.876 119.393 1.802 179.083-.482 6.001 3.235 10.898 5.798 15.96 6.876 3.527 11.494 10.986 19.385 12.458.977.723 1.953 1.472 2.93 2.22-.089 2.068-.165 4.149-.279 6.23-17.85-6.242-36.88-7.448-55.605-8.792-21.592.38-43.147-1.32-64.74-1.612-17.202-.482-34.418-.748-51.646-.672-.127-2.956-.317-5.9-.432-8.843 6.217-.976 11.545-4.503 16.607-8.03 7.155-4.415 14.12-9.63 18.65-16.848 3.07-5.836 6.165-11.913 6.685-18.586 2.753-22.721 2.208-45.646 2.842-68.469-.063-25.03-.216-50.048-.9-75.066-7.067-3.502-14.146-7.016-20.959-10.949-3.806-.215-7.168-2.093-10.327-4.06-4.072-2.562-8.601-4.287-12.699-6.812-2.93-1.129-6.178-1.548-8.703-3.565-4.225-3.057-9.07-5.125-13.257-8.22-6.255-3.286-9.96-9.503-14.679-14.463-2.499-3.032-4.681-6.306-7.218-9.325-2.462-7.117-8.412-12.242-11.076-19.245-2.131-6.09-5.645-11.609-7.434-17.838 9.084-4.732 18.75-9.235 29.116-9.705 11.938-2.753 23.952-5.201 36.08-6.952 3.717-.14 2.588 4.174 1.18 6.14-4.491 2.588-9.287 4.682-13.524 7.714-3.235 2.334-6.711 4.592-10.733 5.214-6.229 4.3-12.927 7.878-18.788 12.737 2.613 2.41 5.163 4.897 7.46 7.625 2.537 3.108 6.926 3.476 9.666 6.318 6.724 6.533 15.973 9.273 23.458 14.729 3.286 2.372 6.927 4.313 10.821 5.493 10.086 3.895 19.005 13.41 30.575 11.392.33-22.95-.546-45.887-1.205-68.824-1.586-49.883-3.578-99.754-5.595-149.612-.837-13.588-.292-27.2-.482-40.787.05-3.806-1.954-7.168-3.844-10.327-5.329-10.06-15.567-16.353-25.767-20.603.825-3.096 3.324-5.696 6.66-5.735 21.15 1.497 42.387.99 63.573.61 26.172-.546 52.32-1.675 78.479-2.563-.14 2.727-.368 5.442-.685 8.157l-3.425 1.637c-3.362 4.339-7.549 8.144-10.074 13.054-3.666 6.914-1.471 14.869-2.296 22.29-.545 31.691.457 63.37.165 95.06-.216 38.936 1.802 77.832 3.184 116.73.483 9.007.698 18.04 1.662 27.022 6.09-1.421 11.799-4.11 17.394-6.838 3.323-2.83 8.119-2.322 11.456-5.164 3.869-3.235 8.728-4.986 12.572-8.259 8.424-2.042 13.384-10.288 21.707-12.66 4.655-4.035 9.933-7.283 14.64-11.254 3.666-1.75 6.812-4.351 9.946-6.889.114-30.917.013-61.834.063-92.75-1.217-47.436-3.78-94.845-7.776-142.128-.457-4.288-2.601-8.107-3.984-12.128-3.603-2.005-6.94-4.453-10.67-6.242-1.243-2.677-5.518-6.66-1.725-9.008 14.197 3.185 28.735 1.713 43.134 2.474 19.5 1.04 38.986-.507 58.485-.38 11.393-.546 22.722-2.322 34.114-2.74a380.31 380.31 0 0 0 2.36 1.623c-3.248 4.136-7.675 7.371-9.92 12.28-3.92 9.148-9.16 17.673-12.32 27.163-3.475 24.307-3.006 48.957-3.209 73.455-.178 24.104.228 48.196.38 72.3.559 15.592.127 31.21 1.13 46.788 13.447-3.159 26.895-6.825 40.736-7.726 10.289-2.41 21.884-1.84 30.55 4.821 3.006.495 5.937 1.497 8.385 3.362 4.618 3.54 9.756 6.292 14.843 9.07-.888-9.527-2.283-19.004-1.915-28.595-2.766-26.78-6.851-53.397-10.86-80.014-.825-4.795-.203-9.692-.774-14.5-3.616-24.485-7.142-48.97-10.682-73.455-.837-4.872-.089-9.858-.863-14.73-3.21-22.366-6.482-44.707-9.692-67.073-1.066-5.874-1.535-11.85-1.32-17.812Z" style="fill:#030303"/></svg>